<svg xmlns="http://www.w3.org/2000/svg" xmlns:xlink="http://www.w3.org/1999/xlink" viewBox="0,0,256,256" width="50px" height="50px" fill-rule="nonzero"><g fill="#dbf213" fill-rule="nonzero" stroke="none" stroke-width="1" stroke-linecap="butt" stroke-linejoin="miter" stroke-miterlimit="10" stroke-dasharray="" stroke-dashoffset="0" font-family="none" font-weight="none" font-size="none" text-anchor="none" style="mix-blend-mode: normal"><g transform="scale(5.12,5.12)"><path d="M25,2c-12.6907,0 -23,10.3093 -23,23c0,12.69071 10.3093,23 23,23c12.69071,0 23,-10.30929 23,-23c0,-12.6907 -10.30929,-23 -23,-23zM25,4c11.60982,0 21,9.39018 21,21c0,11.60982 -9.39018,21 -21,21c-11.60982,0 -21,-9.39018 -21,-21c0,-11.60982 9.39018,-21 21,-21zM21,10v3h-5v24h5v3h2v-3h2v3h2v-3.00977c2.29822,-0.06503 7.80078,-0.70919 7.80078,-6.79102c0,-4.2 -3.60156,-5.59883 -5.10156,-5.79883v-0.09961c0.7,-0.2 4.20117,-1.30039 4.20117,-5.40039c0,-5.11451 -4.84406,-5.78896 -6.90039,-5.87891v-3.02148h-2v3h-2v-3zM18.30078,14.90039h7.89844c3.6,0 5.40039,1.5 5.40039,4.5c0,0.6 -0.09883,1.09961 -0.29883,1.59961c-0.2,0.5 -0.6,0.90078 -1,1.30078c-0.5,0.4 -1.00117,0.69844 -1.70117,0.89844c-0.7,0.2 -1.50039,0.30078 -2.40039,0.30078h-7.89844zM18.30078,25.5h7.89844c2,0 3.60117,0.39922 4.70117,1.19922c1.1,0.8 1.59961,2 1.59961,3.5c0,1 -0.2,1.80039 -0.5,2.40039c-0.4,0.6 -0.80039,1.1 -1.40039,1.5c-0.6,0.4 -1.2,0.70078 -2,0.80078c-0.7,0.1 -1.50039,0.19922 -2.40039,0.19922h-7.89844z"></path></g></g></svg>